<svg width="600" height="500" viewBox="0 0 600 500" xmlns="http://www.w3.org/2000/svg">
  <defs>
    <!-- Gradients -->
    <linearGradient id="primaryGradient" x1="0%" y1="0%" x2="100%" y2="100%">
      <stop offset="0%" style="stop-color:#1da1f2;stop-opacity:1" />
      <stop offset="100%" style="stop-color:#1a91da;stop-opacity:1" />
    </linearGradient>
    
    <linearGradient id="secondaryGradient" x1="0%" y1="0%" x2="100%" y2="100%">
      <stop offset="0%" style="stop-color:#667eea;stop-opacity:0.8" />
      <stop offset="100%" style="stop-color:#764ba2;stop-opacity:0.8" />
    </linearGradient>
    
    <linearGradient id="accentGradient" x1="0%" y1="0%" x2="100%" y2="100%">
      <stop offset="0%" style="stop-color:#00ba7c;stop-opacity:1" />
      <stop offset="100%" style="stop-color:#00a86b;stop-opacity:1" />
    </linearGradient>

    <linearGradient id="glowGradient" x1="0%" y1="0%" x2="100%" y2="100%">
      <stop offset="0%" style="stop-color:#1da1f2;stop-opacity:0.3" />
      <stop offset="100%" style="stop-color:#667eea;stop-opacity:0.1" />
    </linearGradient>

    <!-- Filters -->
    <filter id="glow" x="-50%" y="-50%" width="200%" height="200%">
      <feGaussianBlur stdDeviation="4" result="coloredBlur"/>
      <feMerge> 
        <feMergeNode in="coloredBlur"/>
        <feMergeNode in="SourceGraphic"/>
      </feMerge>
    </filter>

    <filter id="softShadow" x="-20%" y="-20%" width="140%" height="140%">
      <feDropShadow dx="0" dy="4" stdDeviation="8" flood-color="#1da1f2" flood-opacity="0.2"/>
    </filter>
  </defs>

  <!-- Background decorative elements -->
  <circle cx="480" cy="80" r="60" fill="url(#glowGradient)" opacity="0.4">
    <animate attributeName="r" values="60;80;60" dur="4s" repeatCount="indefinite"/>
  </circle>
  
  <circle cx="120" cy="380" r="40" fill="url(#glowGradient)" opacity="0.3">
    <animate attributeName="r" values="40;55;40" dur="3s" repeatCount="indefinite"/>
  </circle>

  <circle cx="520" cy="420" r="25" fill="url(#secondaryGradient)" opacity="0.5">
    <animate attributeName="cy" values="420;400;420" dur="2s" repeatCount="indefinite"/>
  </circle>

  <!-- Main phone/device -->
  <g transform="translate(300, 100)" filter="url(#softShadow)">
    <!-- Phone body -->
    <rect x="-80" y="-20" width="160" height="280" rx="25" ry="25" 
          fill="url(#primaryGradient)" stroke="rgba(255,255,255,0.2)" stroke-width="2"/>
    
    <!-- Screen -->
    <rect x="-70" y="-5" width="140" height="250" rx="20" ry="20" 
          fill="rgba(255,255,255,0.95)" stroke="rgba(29,161,242,0.3)" stroke-width="1"/>
    
    <!-- Screen content - Tweet cards -->
    <g opacity="0.8">
      <!-- Tweet 1 -->
      <rect x="-60" y="10" width="120" height="45" rx="8" fill="rgba(29,161,242,0.1)" stroke="rgba(29,161,242,0.2)" stroke-width="1">
        <animate attributeName="opacity" values="0.8;1;0.8" dur="3s" repeatCount="indefinite"/>
      </rect>
      
      <!-- Profile pic -->
      <circle cx="-45" cy="25" r="8" fill="url(#accentGradient)"/>
      
      <!-- Text lines -->
      <rect x="-30" y="20" width="60" height="3" rx="1.5" fill="rgba(33,37,41,0.6)"/>
      <rect x="-30" y="28" width="40" height="2" rx="1" fill="rgba(33,37,41,0.4)"/>
      <rect x="-30" y="35" width="70" height="2" rx="1" fill="rgba(33,37,41,0.4)"/>
      
      <!-- Tweet 2 -->
      <rect x="-60" y="70" width="120" height="45" rx="8" fill="rgba(102,126,234,0.1)" stroke="rgba(102,126,234,0.2)" stroke-width="1">
        <animate attributeName="opacity" values="1;0.8;1" dur="2.5s" repeatCount="indefinite"/>
      </rect>
      
      <circle cx="-45" cy="85" r="8" fill="url(#secondaryGradient)"/>
      <rect x="-30" y="80" width="50" height="3" rx="1.5" fill="rgba(33,37,41,0.6)"/>
      <rect x="-30" y="88" width="65" height="2" rx="1" fill="rgba(33,37,41,0.4)"/>
      <rect x="-30" y="95" width="35" height="2" rx="1" fill="rgba(33,37,41,0.4)"/>
      
      <!-- Tweet 3 -->
      <rect x="-60" y="130" width="120" height="45" rx="8" fill="rgba(0,186,124,0.1)" stroke="rgba(0,186,124,0.2)" stroke-width="1">
        <animate attributeName="opacity" values="0.8;1;0.8" dur="4s" repeatCount="indefinite"/>
      </rect>
      
      <circle cx="-45" cy="145" r="8" fill="url(#accentGradient)"/>
      <rect x="-30" y="140" width="45" height="3" rx="1.5" fill="rgba(33,37,41,0.6)"/>
      <rect x="-30" y="148" width="75" height="2" rx="1" fill="rgba(33,37,41,0.4)"/>
      <rect x="-30" y="155" width="55" height="2" rx="1" fill="rgba(33,37,41,0.4)"/>
    </g>
    
    <!-- Bottom navigation -->
    <g transform="translate(0, 210)">
      <rect x="-70" y="0" width="140" height="30" fill="rgba(29,161,242,0.05)"/>
      <circle cx="-40" cy="15" r="6" fill="url(#primaryGradient)" opacity="0.7">
        <animate attributeName="opacity" values="0.7;1;0.7" dur="2s" repeatCount="indefinite"/>
      </circle>
      <circle cx="-10" cy="15" r="6" fill="rgba(29,161,242,0.3)"/>
      <circle cx="20" cy="15" r="6" fill="rgba(29,161,242,0.3)"/>
      <circle cx="50" cy="15" r="6" fill="rgba(29,161,242,0.3)"/>
    </g>
  </g>

  <!-- Floating message bubbles -->
  <g opacity="0.9">
    <!-- Large bubble left -->
    <g transform="translate(120, 200)">
      <ellipse cx="0" cy="0" rx="45" ry="30" fill="url(#primaryGradient)" filter="url(#glow)">
        <animateTransform attributeName="transform" type="translate" values="0,0; -5,-10; 0,0" dur="3s" repeatCount="indefinite"/>
      </ellipse>
      <polygon points="-35,20 -25,35 -15,20" fill="url(#primaryGradient)"/>
      
      <!-- Message content -->
      <g fill="rgba(255,255,255,0.9)">
        <rect x="-30" y="-15" width="25" height="3" rx="1.5"/>
        <rect x="-35" y="-8" width="35" height="2.5" rx="1.25"/>
        <rect x="-25" y="-1" width="30" height="2.5" rx="1.25"/>
        <rect x="-30" y="6" width="20" height="2.5" rx="1.25"/>
      </g>
    </g>

    <!-- Medium bubble top right -->
    <g transform="translate(450, 150)">
      <ellipse cx="0" cy="0" rx="35" ry="25" fill="url(#accentGradient)" opacity="0.8">
        <animateTransform attributeName="transform" type="translate" values="0,0; 5,8; 0,0" dur="4s" repeatCount="indefinite"/>
      </ellipse>
      <polygon points="25,15 35,28 45,15" fill="url(#accentGradient)" opacity="0.8"/>
      
      <g fill="rgba(255,255,255,0.9)">
        <rect x="-20" y="-10" width="20" height="2.5" rx="1.25"/>
        <rect x="-25" y="-4" width="30" height="2" rx="1"/>
        <rect x="-15" y="2" width="25" height="2" rx="1"/>
      </g>
    </g>

    <!-- Small bubble bottom right -->
    <g transform="translate(480, 320)">
      <ellipse cx="0" cy="0" rx="25" ry="18" fill="url(#secondaryGradient)" opacity="0.7">
        <animateTransform attributeName="transform" type="translate" values="0,0; -3,5; 0,0" dur="2.5s" repeatCount="indefinite"/>
      </ellipse>
      <polygon points="-15,12 -8,25 -1,12" fill="url(#secondaryGradient)" opacity="0.7"/>
      
      <g fill="rgba(255,255,255,0.9)">
        <rect x="-15" y="-8" width="15" height="2" rx="1"/>
        <rect x="-18" y="-3" width="20" height="1.5" rx="0.75"/>
        <rect x="-12" y="2" width="18" height="1.5" rx="0.75"/>
      </g>
    </g>
  </g>

  <!-- Flying icons/elements -->
  <g opacity="0.6">
    <!-- Heart icon -->
    <g transform="translate(150, 120)">
      <path d="M12,21.35l-1.45-1.32C5.4,15.36,2,12.28,2,8.5 C2,5.42,4.42,3,7.5,3c1.74,0,3.41,0.81,4.5,2.09C13.09,3.81,14.76,3,16.5,3 C19.58,3,22,5.42,22,8.5c0,3.78-3.4,6.86-8.55,11.54L12,21.35z" 
            fill="rgba(249,24,128,0.7)" transform="scale(0.8)">
        <animateTransform attributeName="transform" type="translate" values="0,0; 10,-15; 0,0" dur="6s" repeatCount="indefinite"/>
        <animate attributeName="opacity" values="0.4;0.8;0.4" dur="3s" repeatCount="indefinite"/>
      </path>
    </g>

    <!-- Retweet icon -->
    <g transform="translate(420, 280)">
      <path d="M23.77 15.67c-.292-.293-.767-.293-1.06 0l-2.22 2.22V7.65c0-2.068-1.683-3.75-3.75-3.75h-5.85c-.414 0-.75.336-.75.75s.336.75.75.75h5.85c1.24 0 2.25 1.01 2.25 2.25v10.24l-2.22-2.22c-.293-.293-.768-.293-1.061 0s-.293.768 0 1.061l3.5 3.5c.145.147.337.22.53.22s.383-.072.53-.22l3.5-3.5c.294-.293.294-.767.002-1.06z" 
            fill="rgba(29,161,242,0.7)" transform="scale(0.7)">
        <animateTransform attributeName="transform" type="rotate" values="0;360;0" dur="8s" repeatCount="indefinite"/>
      </path>
      <path d="M8.75 25c-1.24 0-2.25-1.01-2.25-2.25V12.51l2.22 2.22c.148.147.34.22.532.22s.384-.073.531-.22c.293-.293.293-.768 0-1.061l-3.5-3.5c-.293-.294-.768-.294-1.061 0l-3.5 3.5c-.294.293-.294.768 0 1.061s.767.293 1.06 0l2.22-2.22V22.75c0 2.068 1.683 3.75 3.75 3.75h5.85c.414 0 .75-.336.75-.75s-.337-.75-.75-.75H8.75z" 
            fill="rgba(29,161,242,0.7)" transform="scale(0.7)">
        <animateTransform attributeName="transform" type="rotate" values="0;360;0" dur="8s" repeatCount="indefinite"/>
      </path>
    </g>

    <!-- Comment bubble -->
    <g transform="translate(100, 320)">
      <circle cx="0" cy="0" r="12" fill="rgba(102,126,234,0.6)">
        <animate attributeName="r" values="12;15;12" dur="2s" repeatCount="indefinite"/>
      </circle>
      <circle cx="-4" cy="-2" r="1.5" fill="white"/>
      <circle cx="0" cy="-2" r="1.5" fill="white"/>
      <circle cx="4" cy="-2" r="1.5" fill="white"/>
      
      <animateTransform attributeName="transform" type="translate" values="0,0; -8,12; 0,0" dur="5s" repeatCount="indefinite"/>
    </g>
  </g>

  <!-- Connection lines -->
  <g stroke="url(#primaryGradient)" stroke-width="2" fill="none" opacity="0.3">
    <path d="M 180 230 Q 250 200 320 180">
      <animate attributeName="opacity" values="0.1;0.4;0.1" dur="3s" repeatCount="indefinite"/>
    </path>
    <path d="M 420 300 Q 380 250 340 200">
      <animate attributeName="opacity" values="0.3;0.1;0.3" dur="4s" repeatCount="indefinite"/>
    </path>
    <path d="M 140 340 Q 200 320 280 300">
      <animate attributeName="opacity" values="0.2;0.5;0.2" dur="2.5s" repeatCount="indefinite"/>
    </path>
  </g>

  <!-- Floating particles -->
  <g>
    <circle cx="80" cy="100" r="3" fill="rgba(29,161,242,0.4)">
      <animateTransform attributeName="transform" type="translate" values="0,0; 20,-30; 40,10; 0,0" dur="12s" repeatCount="indefinite"/>
      <animate attributeName="opacity" values="0.2;0.6;0.2" dur="4s" repeatCount="indefinite"/>
    </circle>
    
    <circle cx="500" cy="200" r="2" fill="rgba(0,186,124,0.5)">
      <animateTransform attributeName="transform" type="translate" values="0,0; -25,15; -10,-20; 0,0" dur="10s" repeatCount="indefinite"/>
      <animate attributeName="opacity" values="0.3;0.7;0.3" dur="3s" repeatCount="indefinite"/>
    </circle>
    
    <circle cx="450" cy="400" r="4" fill="rgba(102,126,234,0.4)">
      <animateTransform attributeName="transform" type="translate" values="0,0; -15,-25; -35,5; 0,0" dur="14s" repeatCount="indefinite"/>
      <animate attributeName="opacity" values="0.1;0.5;0.1" dur="5s" repeatCount="indefinite"/>
    </circle>
  </g>
</svg>